solid OpenSCAD_Model
  facet normal -1 0 0
    outer loop
      vertex -5 13.0148 9.2
      vertex -5 23 27.2
      vertex -5 23 9.2
    endloop
  endfacet
  facet normal -1 0 0
    outer loop
      vertex -5 13.0148 9.2
      vertex -5 -5.64667 27.2
      vertex -5 23 27.2
    endloop
  endfacet
  facet normal -1 0 -0
    outer loop
      vertex -5 -5.64667 27.2
      vertex -5 13.0148 9.2
      vertex -5 -12.1981 9.2
    endloop
  endfacet
  facet normal -0 0 1
    outer loop
      vertex -5 23 27.2
      vertex 5 -5.64667 27.2
      vertex 5 23 27.2
    endloop
  endfacet
  facet normal 0 0 1
    outer loop
      vertex 5 -5.64667 27.2
      vertex -5 23 27.2
      vertex -5 -5.64667 27.2
    endloop
  endfacet
  facet normal 1 0 0
    outer loop
      vertex 5 23 27.2
      vertex 5 13.0148 9.2
      vertex 5 23 9.2
    endloop
  endfacet
  facet normal 1 -0 0
    outer loop
      vertex 5 -5.64667 27.2
      vertex 5 13.0148 9.2
      vertex 5 23 27.2
    endloop
  endfacet
  facet normal 1 0 0
    outer loop
      vertex 5 13.0148 9.2
      vertex 5 -5.64667 27.2
      vertex 5 -12.1981 9.2
    endloop
  endfacet
  facet normal 0 1 -0
    outer loop
      vertex 5 23 9.2
      vertex -5 23 27.2
      vertex 5 23 27.2
    endloop
  endfacet
  facet normal 0 1 0
    outer loop
      vertex -5 23 27.2
      vertex 5 23 9.2
      vertex -5 23 9.2
    endloop
  endfacet
  facet normal 0 0 -1
    outer loop
      vertex 4.32624 13.3148 9.2
      vertex 5 23 9.2
      vertex 5 13.0148 9.2
    endloop
  endfacet
  facet normal 0 0 -1
    outer loop
      vertex 1.4634 13.9233 9.2
      vertex 5 23 9.2
      vertex 4.32624 13.3148 9.2
    endloop
  endfacet
  facet normal 0 0 -1
    outer loop
      vertex -1.4634 13.9233 9.2
      vertex 5 23 9.2
      vertex 1.4634 13.9233 9.2
    endloop
  endfacet
  facet normal 0 0 -1
    outer loop
      vertex -5 23 9.2
      vertex -1.4634 13.9233 9.2
      vertex -4.32624 13.3148 9.2
    endloop
  endfacet
  facet normal 0 0 -1
    outer loop
      vertex -5 23 9.2
      vertex -4.32624 13.3148 9.2
      vertex -5 13.0148 9.2
    endloop
  endfacet
  facet normal 0 0 -1
    outer loop
      vertex -1.4634 13.9233 9.2
      vertex -5 23 9.2
      vertex 5 23 9.2
    endloop
  endfacet
  facet normal 0 0 1
    outer loop
      vertex -9.36783 10.404 9.2
      vertex -5 13.0148 9.2
      vertex -7 12.1244 9.2
    endloop
  endfacet
  facet normal 0 0 1
    outer loop
      vertex 5 -12.1981 9.2
      vertex 14 0 9.2
      vertex 13.6941 2.91076 9.2
    endloop
  endfacet
  facet normal 0 0 1
    outer loop
      vertex 5 -12.1981 9.2
      vertex 13.6941 2.91076 9.2
      vertex 12.7896 5.69431 9.2
    endloop
  endfacet
  facet normal 0 0 1
    outer loop
      vertex 14 0 9.2
      vertex 5 -12.1981 9.2
      vertex 13.6941 -2.91076 9.2
    endloop
  endfacet
  facet normal 0 0 1
    outer loop
      vertex 5 -12.1981 9.2
      vertex 12.7896 5.69431 9.2
      vertex 11.3262 8.22899 9.2
    endloop
  endfacet
  facet normal 0 0 1
    outer loop
      vertex 13.6941 -2.91076 9.2
      vertex 5 -12.1981 9.2
      vertex 12.7896 -5.69431 9.2
    endloop
  endfacet
  facet normal 0 0 1
    outer loop
      vertex 5 -12.1981 9.2
      vertex 11.3262 8.22899 9.2
      vertex 9.36783 10.404 9.2
    endloop
  endfacet
  facet normal 0 0 1
    outer loop
      vertex 12.7896 -5.69431 9.2
      vertex 5 -12.1981 9.2
      vertex 11.3262 -8.22899 9.2
    endloop
  endfacet
  facet normal 0 0 1
    outer loop
      vertex 5 13.0148 9.2
      vertex 9.36783 10.404 9.2
      vertex 7 12.1244 9.2
    endloop
  endfacet
  facet normal 0 0 1
    outer loop
      vertex 11.3262 -8.22899 9.2
      vertex 5 -12.1981 9.2
      vertex 9.36783 -10.404 9.2
    endloop
  endfacet
  facet normal 0 0 1
    outer loop
      vertex 9.36783 10.404 9.2
      vertex 5 13.0148 9.2
      vertex 5 -12.1981 9.2
    endloop
  endfacet
  facet normal 0 0 1
    outer loop
      vertex 9.36783 -10.404 9.2
      vertex 5 -12.1981 9.2
      vertex 7 -12.1244 9.2
    endloop
  endfacet
  facet normal -0 0 1
    outer loop
      vertex 5 -12.1981 9.2
      vertex 4.32624 -13.3148 9.2
      vertex 7 -12.1244 9.2
    endloop
  endfacet
  facet normal 0 0 1
    outer loop
      vertex 5 -12.1981 9.2
      vertex 1.4634 -13.9233 9.2
      vertex 4.32624 -13.3148 9.2
    endloop
  endfacet
  facet normal 0 0 1
    outer loop
      vertex 5 -12.1981 9.2
      vertex -1.4634 -13.9233 9.2
      vertex 1.4634 -13.9233 9.2
    endloop
  endfacet
  facet normal -0 0 1
    outer loop
      vertex -5 -12.1981 9.2
      vertex -1.4634 -13.9233 9.2
      vertex 5 -12.1981 9.2
    endloop
  endfacet
  facet normal 0 0 1
    outer loop
      vertex -1.4634 -13.9233 9.2
      vertex -5 -12.1981 9.2
      vertex -4.32624 -13.3148 9.2
    endloop
  endfacet
  facet normal 0 0 1
    outer loop
      vertex -5 -12.1981 9.2
      vertex -7 -12.1244 9.2
      vertex -4.32624 -13.3148 9.2
    endloop
  endfacet
  facet normal 0 0 1
    outer loop
      vertex -5 13.0148 9.2
      vertex -9.36783 10.404 9.2
      vertex -5 -12.1981 9.2
    endloop
  endfacet
  facet normal -0 0 1
    outer loop
      vertex -11.3262 8.22899 9.2
      vertex -5 -12.1981 9.2
      vertex -9.36783 10.404 9.2
    endloop
  endfacet
  facet normal 0 0 1
    outer loop
      vertex -5 -12.1981 9.2
      vertex -9.36783 -10.404 9.2
      vertex -7 -12.1244 9.2
    endloop
  endfacet
  facet normal -0 0 1
    outer loop
      vertex -12.7896 5.69431 9.2
      vertex -5 -12.1981 9.2
      vertex -11.3262 8.22899 9.2
    endloop
  endfacet
  facet normal 0 0 1
    outer loop
      vertex -5 -12.1981 9.2
      vertex -11.3262 -8.22899 9.2
      vertex -9.36783 -10.404 9.2
    endloop
  endfacet
  facet normal -0 0 1
    outer loop
      vertex -13.6941 2.91076 9.2
      vertex -5 -12.1981 9.2
      vertex -12.7896 5.69431 9.2
    endloop
  endfacet
  facet normal 0 0 1
    outer loop
      vertex -5 -12.1981 9.2
      vertex -12.7896 -5.69431 9.2
      vertex -11.3262 -8.22899 9.2
    endloop
  endfacet
  facet normal -0 0 1
    outer loop
      vertex -14 0 9.2
      vertex -5 -12.1981 9.2
      vertex -13.6941 2.91076 9.2
    endloop
  endfacet
  facet normal 0 0 1
    outer loop
      vertex -5 -12.1981 9.2
      vertex -13.6941 -2.91076 9.2
      vertex -12.7896 -5.69431 9.2
    endloop
  endfacet
  facet normal 0 0 1
    outer loop
      vertex -5 -12.1981 9.2
      vertex -14 0 9.2
      vertex -13.6941 -2.91076 9.2
    endloop
  endfacet
  facet normal 0 -0.939693 0.34202
    outer loop
      vertex -5 -12.1981 9.2
      vertex 5 -5.64667 27.2
      vertex -5 -5.64667 27.2
    endloop
  endfacet
  facet normal 0 -0.939693 0.34202
    outer loop
      vertex 5 -5.64667 27.2
      vertex -5 -12.1981 9.2
      vertex 5 -12.1981 9.2
    endloop
  endfacet
  facet normal 0.994522 0.104529 0
    outer loop
      vertex 14 0 9.2
      vertex 13.6941 2.91076 3.2
      vertex 13.6941 2.91076 9.2
    endloop
  endfacet
  facet normal 0.994522 0.104529 0
    outer loop
      vertex 13.6941 2.91076 3.2
      vertex 14 0 9.2
      vertex 14 0 3.2
    endloop
  endfacet
  facet normal -0.994522 0.104529 0
    outer loop
      vertex -14 0 3.2
      vertex -13.6941 2.91076 9.2
      vertex -13.6941 2.91076 3.2
    endloop
  endfacet
  facet normal -0.994522 0.104529 0
    outer loop
      vertex -13.6941 2.91076 9.2
      vertex -14 0 3.2
      vertex -14 0 9.2
    endloop
  endfacet
  facet normal 0 1 -0
    outer loop
      vertex 1.4634 13.9233 3.2
      vertex -1.4634 13.9233 9.2
      vertex 1.4634 13.9233 9.2
    endloop
  endfacet
  facet normal 0 1 0
    outer loop
      vertex -1.4634 13.9233 9.2
      vertex 1.4634 13.9233 3.2
      vertex -1.4634 13.9233 3.2
    endloop
  endfacet
  facet normal 0 -1 0
    outer loop
      vertex -1.4634 -13.9233 3.2
      vertex 1.4634 -13.9233 9.2
      vertex -1.4634 -13.9233 9.2
    endloop
  endfacet
  facet normal 0 -1 -0
    outer loop
      vertex 1.4634 -13.9233 9.2
      vertex -1.4634 -13.9233 3.2
      vertex 1.4634 -13.9233 3.2
    endloop
  endfacet
  facet normal 0.587785 0.809017 -0
    outer loop
      vertex 9.36783 10.404 3.2
      vertex 7 12.1244 9.2
      vertex 9.36783 10.404 9.2
    endloop
  endfacet
  facet normal 0.587785 0.809017 0
    outer loop
      vertex 7 12.1244 9.2
      vertex 9.36783 10.404 3.2
      vertex 7 12.1244 3.2
    endloop
  endfacet
  facet normal -0.743145 0.669131 0
    outer loop
      vertex -11.3262 8.22899 3.2
      vertex -9.36783 10.404 9.2
      vertex -9.36783 10.404 3.2
    endloop
  endfacet
  facet normal -0.743145 0.669131 0
    outer loop
      vertex -9.36783 10.404 9.2
      vertex -11.3262 8.22899 3.2
      vertex -11.3262 8.22899 9.2
    endloop
  endfacet
  facet normal -0.406737 0.913545 0
    outer loop
      vertex -4.32624 13.3148 3.2
      vertex -5 13.0148 9.2
      vertex -4.32624 13.3148 9.2
    endloop
  endfacet
  facet normal -0.406737 0.913545 -1.43742e-08
    outer loop
      vertex -7 12.1244 3.2
      vertex -5 13.0148 9.2
      vertex -4.32624 13.3148 3.2
    endloop
  endfacet
  facet normal -0.406737 0.913545 0
    outer loop
      vertex -5 13.0148 9.2
      vertex -7 12.1244 3.2
      vertex -7 12.1244 9.2
    endloop
  endfacet
  facet normal 0.866026 0.5 0
    outer loop
      vertex 12.7896 5.69431 9.2
      vertex 11.3262 8.22899 3.2
      vertex 11.3262 8.22899 9.2
    endloop
  endfacet
  facet normal 0.866026 0.5 0
    outer loop
      vertex 11.3262 8.22899 3.2
      vertex 12.7896 5.69431 9.2
      vertex 12.7896 5.69431 3.2
    endloop
  endfacet
  facet normal 0.951056 0.309017 0
    outer loop
      vertex 13.6941 2.91076 9.2
      vertex 12.7896 5.69431 3.2
      vertex 12.7896 5.69431 9.2
    endloop
  endfacet
  facet normal 0.951056 0.309017 0
    outer loop
      vertex 12.7896 5.69431 3.2
      vertex 13.6941 2.91076 9.2
      vertex 13.6941 2.91076 3.2
    endloop
  endfacet
  facet normal 0.743145 0.669131 0
    outer loop
      vertex 11.3262 8.22899 9.2
      vertex 9.36783 10.404 3.2
      vertex 9.36783 10.404 9.2
    endloop
  endfacet
  facet normal 0.743145 0.669131 0
    outer loop
      vertex 9.36783 10.404 3.2
      vertex 11.3262 8.22899 9.2
      vertex 11.3262 8.22899 3.2
    endloop
  endfacet
  facet normal 0.207912 0.978148 -0
    outer loop
      vertex 4.32624 13.3148 3.2
      vertex 1.4634 13.9233 9.2
      vertex 4.32624 13.3148 9.2
    endloop
  endfacet
  facet normal 0.207912 0.978148 0
    outer loop
      vertex 1.4634 13.9233 9.2
      vertex 4.32624 13.3148 3.2
      vertex 1.4634 13.9233 3.2
    endloop
  endfacet
  facet normal 0.406737 0.913545 -0
    outer loop
      vertex 7 12.1244 3.2
      vertex 5 13.0148 9.2
      vertex 7 12.1244 9.2
    endloop
  endfacet
  facet normal 0.406737 0.913545 1.91669e-09
    outer loop
      vertex 4.32624 13.3148 3.2
      vertex 5 13.0148 9.2
      vertex 7 12.1244 3.2
    endloop
  endfacet
  facet normal 0.406737 0.913545 0
    outer loop
      vertex 5 13.0148 9.2
      vertex 4.32624 13.3148 3.2
      vertex 4.32624 13.3148 9.2
    endloop
  endfacet
  facet normal -0.866026 0.5 0
    outer loop
      vertex -12.7896 5.69431 3.2
      vertex -11.3262 8.22899 9.2
      vertex -11.3262 8.22899 3.2
    endloop
  endfacet
  facet normal -0.866026 0.5 0
    outer loop
      vertex -11.3262 8.22899 9.2
      vertex -12.7896 5.69431 3.2
      vertex -12.7896 5.69431 9.2
    endloop
  endfacet
  facet normal -0.951056 0.309017 0
    outer loop
      vertex -13.6941 2.91076 3.2
      vertex -12.7896 5.69431 9.2
      vertex -12.7896 5.69431 3.2
    endloop
  endfacet
  facet normal -0.951056 0.309017 0
    outer loop
      vertex -12.7896 5.69431 9.2
      vertex -13.6941 2.91076 3.2
      vertex -13.6941 2.91076 9.2
    endloop
  endfacet
  facet normal -0.587785 0.809017 0
    outer loop
      vertex -7 12.1244 3.2
      vertex -9.36783 10.404 9.2
      vertex -7 12.1244 9.2
    endloop
  endfacet
  facet normal -0.587785 0.809017 0
    outer loop
      vertex -9.36783 10.404 9.2
      vertex -7 12.1244 3.2
      vertex -9.36783 10.404 3.2
    endloop
  endfacet
  facet normal -0.207912 0.978148 0
    outer loop
      vertex -1.4634 13.9233 3.2
      vertex -4.32624 13.3148 9.2
      vertex -1.4634 13.9233 9.2
    endloop
  endfacet
  facet normal -0.207912 0.978148 0
    outer loop
      vertex -4.32624 13.3148 9.2
      vertex -1.4634 13.9233 3.2
      vertex -4.32624 13.3148 3.2
    endloop
  endfacet
  facet normal 0.994522 -0.104529 0
    outer loop
      vertex 13.6941 -2.91076 9.2
      vertex 14 0 3.2
      vertex 14 0 9.2
    endloop
  endfacet
  facet normal 0.994522 -0.104529 0
    outer loop
      vertex 14 0 3.2
      vertex 13.6941 -2.91076 9.2
      vertex 13.6941 -2.91076 3.2
    endloop
  endfacet
  facet normal 0.743145 -0.669131 0
    outer loop
      vertex 9.36783 -10.404 9.2
      vertex 11.3262 -8.22899 3.2
      vertex 11.3262 -8.22899 9.2
    endloop
  endfacet
  facet normal 0.743145 -0.669131 0
    outer loop
      vertex 11.3262 -8.22899 3.2
      vertex 9.36783 -10.404 9.2
      vertex 9.36783 -10.404 3.2
    endloop
  endfacet
  facet normal 0.951056 -0.309017 0
    outer loop
      vertex 12.7896 -5.69431 9.2
      vertex 13.6941 -2.91076 3.2
      vertex 13.6941 -2.91076 9.2
    endloop
  endfacet
  facet normal 0.951056 -0.309017 0
    outer loop
      vertex 13.6941 -2.91076 3.2
      vertex 12.7896 -5.69431 9.2
      vertex 12.7896 -5.69431 3.2
    endloop
  endfacet
  facet normal 0.866026 -0.5 0
    outer loop
      vertex 11.3262 -8.22899 9.2
      vertex 12.7896 -5.69431 3.2
      vertex 12.7896 -5.69431 9.2
    endloop
  endfacet
  facet normal 0.866026 -0.5 0
    outer loop
      vertex 12.7896 -5.69431 3.2
      vertex 11.3262 -8.22899 9.2
      vertex 11.3262 -8.22899 3.2
    endloop
  endfacet
  facet normal -0.866026 -0.5 0
    outer loop
      vertex -11.3262 -8.22899 3.2
      vertex -12.7896 -5.69431 9.2
      vertex -12.7896 -5.69431 3.2
    endloop
  endfacet
  facet normal -0.866026 -0.5 0
    outer loop
      vertex -12.7896 -5.69431 9.2
      vertex -11.3262 -8.22899 3.2
      vertex -11.3262 -8.22899 9.2
    endloop
  endfacet
  facet normal 0 0 -1
    outer loop
      vertex 2.60162 -2.8045 3.2
      vertex 14 0 3.2
      vertex 13.6941 -2.91076 3.2
    endloop
  endfacet
  facet normal 0 0 -1
    outer loop
      vertex 2.60162 -2.8045 3.2
      vertex 13.6941 -2.91076 3.2
      vertex 12.7896 -5.69431 3.2
    endloop
  endfacet
  facet normal 0 0 -1
    outer loop
      vertex 2.60162 2.8045 3.2
      vertex 14 0 3.2
      vertex 2.60162 -2.8045 3.2
    endloop
  endfacet
  facet normal 0 0 -1
    outer loop
      vertex 2.60162 -2.8045 3.2
      vertex 12.7896 -5.69431 3.2
      vertex 11.3262 -8.22899 3.2
    endloop
  endfacet
  facet normal 0 0 -1
    outer loop
      vertex 14 0 3.2
      vertex 2.60162 2.8045 3.2
      vertex 13.6941 2.91076 3.2
    endloop
  endfacet
  facet normal 0 0 -1
    outer loop
      vertex 2.60162 -2.8045 3.2
      vertex 11.3262 -8.22899 3.2
      vertex 9.36783 -10.404 3.2
    endloop
  endfacet
  facet normal -0 0 -1
    outer loop
      vertex 13.6941 2.91076 3.2
      vertex 2.60162 2.8045 3.2
      vertex 12.7896 5.69431 3.2
    endloop
  endfacet
  facet normal 0 0 -1
    outer loop
      vertex 2.60162 -2.8045 3.2
      vertex 9.36783 -10.404 3.2
      vertex 7 -12.1244 3.2
    endloop
  endfacet
  facet normal -0 0 -1
    outer loop
      vertex 12.7896 5.69431 3.2
      vertex 2.60162 2.8045 3.2
      vertex 11.3262 8.22899 3.2
    endloop
  endfacet
  facet normal 0 0 -1
    outer loop
      vertex 2.60162 -2.8045 3.2
      vertex 7 -12.1244 3.2
      vertex 4.32624 -13.3148 3.2
    endloop
  endfacet
  facet normal -0 0 -1
    outer loop
      vertex 11.3262 8.22899 3.2
      vertex 2.60162 2.8045 3.2
      vertex 9.36783 10.404 3.2
    endloop
  endfacet
  facet normal -0 0 -1
    outer loop
      vertex 9.36783 10.404 3.2
      vertex 2.60162 2.8045 3.2
      vertex 7 12.1244 3.2
    endloop
  endfacet
  facet normal 0 0 -1
    outer loop
      vertex 1.4634 -13.9233 3.2
      vertex 2.60162 -2.8045 3.2
      vertex 4.32624 -13.3148 3.2
    endloop
  endfacet
  facet normal 0 0 -1
    outer loop
      vertex 1.4634 -13.9233 3.2
      vertex -0.562512 -2.8045 3.2
      vertex 2.60162 -2.8045 3.2
    endloop
  endfacet
  facet normal 0 0 -1
    outer loop
      vertex -1.4634 -13.9233 3.2
      vertex -0.562512 -2.8045 3.2
      vertex 1.4634 -13.9233 3.2
    endloop
  endfacet
  facet normal 0 0 -1
    outer loop
      vertex -4.32624 -13.3148 3.2
      vertex -0.562512 -2.8045 3.2
      vertex -1.4634 -13.9233 3.2
    endloop
  endfacet
  facet normal 0 0 -1
    outer loop
      vertex -9.36783 -10.404 3.2
      vertex -0.562512 -2.8045 3.2
      vertex -7 -12.1244 3.2
    endloop
  endfacet
  facet normal 0 0 -1
    outer loop
      vertex -7 -12.1244 3.2
      vertex -0.562512 -2.8045 3.2
      vertex -4.32624 -13.3148 3.2
    endloop
  endfacet
  facet normal -0 0 -1
    outer loop
      vertex 7 12.1244 3.2
      vertex 2.60162 2.8045 3.2
      vertex 4.32624 13.3148 3.2
    endloop
  endfacet
  facet normal 0 0 -1
    outer loop
      vertex 2.60162 2.8045 3.2
      vertex 1.4634 13.9233 3.2
      vertex 4.32624 13.3148 3.2
    endloop
  endfacet
  facet normal 0 0 -1
    outer loop
      vertex 2.60162 2.8045 3.2
      vertex -1.4634 13.9233 3.2
      vertex 1.4634 13.9233 3.2
    endloop
  endfacet
  facet normal 0 0 -1
    outer loop
      vertex -2.60162 2.8045 3.2
      vertex -1.4634 13.9233 3.2
      vertex 2.60162 2.8045 3.2
    endloop
  endfacet
  facet normal -0 0 -1
    outer loop
      vertex -0.562512 -2.8045 3.2
      vertex -9.36783 -10.404 3.2
      vertex -2.60162 -0.727965 3.2
    endloop
  endfacet
  facet normal 0 0 -1
    outer loop
      vertex -2.60162 2.8045 3.2
      vertex -4.32624 13.3148 3.2
      vertex -1.4634 13.9233 3.2
    endloop
  endfacet
  facet normal 0 0 -1
    outer loop
      vertex -2.60162 2.8045 3.2
      vertex -7 12.1244 3.2
      vertex -4.32624 13.3148 3.2
    endloop
  endfacet
  facet normal 0 0 -1
    outer loop
      vertex -11.3262 -8.22899 3.2
      vertex -2.60162 -0.727965 3.2
      vertex -9.36783 -10.404 3.2
    endloop
  endfacet
  facet normal 0 0 -1
    outer loop
      vertex -12.7896 -5.69431 3.2
      vertex -2.60162 -0.727965 3.2
      vertex -11.3262 -8.22899 3.2
    endloop
  endfacet
  facet normal 0 0 -1
    outer loop
      vertex -2.60162 2.8045 3.2
      vertex -9.36783 10.404 3.2
      vertex -7 12.1244 3.2
    endloop
  endfacet
  facet normal 0 0 -1
    outer loop
      vertex -13.6941 -2.91076 3.2
      vertex -2.60162 -0.727965 3.2
      vertex -12.7896 -5.69431 3.2
    endloop
  endfacet
  facet normal 0 0 -1
    outer loop
      vertex -2.60162 2.8045 3.2
      vertex -11.3262 8.22899 3.2
      vertex -9.36783 10.404 3.2
    endloop
  endfacet
  facet normal 0 0 -1
    outer loop
      vertex -14 0 3.2
      vertex -2.60162 -0.727965 3.2
      vertex -13.6941 -2.91076 3.2
    endloop
  endfacet
  facet normal 0 0 -1
    outer loop
      vertex -2.60162 2.8045 3.2
      vertex -12.7896 5.69431 3.2
      vertex -11.3262 8.22899 3.2
    endloop
  endfacet
  facet normal 0 -0 -1
    outer loop
      vertex -13.6941 2.91076 3.2
      vertex -2.60162 -0.727965 3.2
      vertex -14 0 3.2
    endloop
  endfacet
  facet normal 0 0 -1
    outer loop
      vertex -2.60162 2.8045 3.2
      vertex -13.6941 2.91076 3.2
      vertex -12.7896 5.69431 3.2
    endloop
  endfacet
  facet normal 0 0 -1
    outer loop
      vertex -2.60162 -0.727965 3.2
      vertex -13.6941 2.91076 3.2
      vertex -2.60162 2.8045 3.2
    endloop
  endfacet
  facet normal 0.587785 -0.809017 0
    outer loop
      vertex 7 -12.1244 3.2
      vertex 9.36783 -10.404 9.2
      vertex 7 -12.1244 9.2
    endloop
  endfacet
  facet normal 0.587785 -0.809017 0
    outer loop
      vertex 9.36783 -10.404 9.2
      vertex 7 -12.1244 3.2
      vertex 9.36783 -10.404 3.2
    endloop
  endfacet
  facet normal -0.207912 -0.978148 0
    outer loop
      vertex -4.32624 -13.3148 3.2
      vertex -1.4634 -13.9233 9.2
      vertex -4.32624 -13.3148 9.2
    endloop
  endfacet
  facet normal -0.207912 -0.978148 -0
    outer loop
      vertex -1.4634 -13.9233 9.2
      vertex -4.32624 -13.3148 3.2
      vertex -1.4634 -13.9233 3.2
    endloop
  endfacet
  facet normal -0.406737 -0.913545 0
    outer loop
      vertex -7 -12.1244 3.2
      vertex -4.32624 -13.3148 9.2
      vertex -7 -12.1244 9.2
    endloop
  endfacet
  facet normal -0.406737 -0.913545 -0
    outer loop
      vertex -4.32624 -13.3148 9.2
      vertex -7 -12.1244 3.2
      vertex -4.32624 -13.3148 3.2
    endloop
  endfacet
  facet normal -0.743145 -0.669131 0
    outer loop
      vertex -9.36783 -10.404 3.2
      vertex -11.3262 -8.22899 9.2
      vertex -11.3262 -8.22899 3.2
    endloop
  endfacet
  facet normal -0.743145 -0.669131 0
    outer loop
      vertex -11.3262 -8.22899 9.2
      vertex -9.36783 -10.404 3.2
      vertex -9.36783 -10.404 9.2
    endloop
  endfacet
  facet normal -0.951056 -0.309017 0
    outer loop
      vertex -12.7896 -5.69431 3.2
      vertex -13.6941 -2.91076 9.2
      vertex -13.6941 -2.91076 3.2
    endloop
  endfacet
  facet normal -0.951056 -0.309017 0
    outer loop
      vertex -13.6941 -2.91076 9.2
      vertex -12.7896 -5.69431 3.2
      vertex -12.7896 -5.69431 9.2
    endloop
  endfacet
  facet normal -0.994522 -0.104529 0
    outer loop
      vertex -13.6941 -2.91076 3.2
      vertex -14 0 9.2
      vertex -14 0 3.2
    endloop
  endfacet
  facet normal -0.994522 -0.104529 0
    outer loop
      vertex -14 0 9.2
      vertex -13.6941 -2.91076 3.2
      vertex -13.6941 -2.91076 9.2
    endloop
  endfacet
  facet normal 0.406737 -0.913545 0
    outer loop
      vertex 4.32624 -13.3148 3.2
      vertex 7 -12.1244 9.2
      vertex 4.32624 -13.3148 9.2
    endloop
  endfacet
  facet normal 0.406737 -0.913545 0
    outer loop
      vertex 7 -12.1244 9.2
      vertex 4.32624 -13.3148 3.2
      vertex 7 -12.1244 3.2
    endloop
  endfacet
  facet normal 0.207912 -0.978148 0
    outer loop
      vertex 1.4634 -13.9233 3.2
      vertex 4.32624 -13.3148 9.2
      vertex 1.4634 -13.9233 9.2
    endloop
  endfacet
  facet normal 0.207912 -0.978148 0
    outer loop
      vertex 4.32624 -13.3148 9.2
      vertex 1.4634 -13.9233 3.2
      vertex 4.32624 -13.3148 3.2
    endloop
  endfacet
  facet normal -0.587785 -0.809017 0
    outer loop
      vertex -9.36783 -10.404 3.2
      vertex -7 -12.1244 9.2
      vertex -9.36783 -10.404 9.2
    endloop
  endfacet
  facet normal -0.587785 -0.809017 -0
    outer loop
      vertex -7 -12.1244 9.2
      vertex -9.36783 -10.404 3.2
      vertex -7 -12.1244 3.2
    endloop
  endfacet
  facet normal 0.980785 0.19509 0
    outer loop
      vertex 4.86 0 3.1
      vertex 4.49005 1.85984 -3.1
      vertex 4.49005 1.85984 3.1
    endloop
  endfacet
  facet normal 0.980785 0.19509 0
    outer loop
      vertex 4.49005 1.85984 -3.1
      vertex 4.86 0 3.1
      vertex 4.86 0 -3.1
    endloop
  endfacet
  facet normal -0.980785 0.19509 0
    outer loop
      vertex -4.86 0 -3.1
      vertex -4.49005 1.85984 3.1
      vertex -4.49005 1.85984 -3.1
    endloop
  endfacet
  facet normal -0.980785 0.19509 0
    outer loop
      vertex -4.49005 1.85984 3.1
      vertex -4.86 0 -3.1
      vertex -4.86 0 3.1
    endloop
  endfacet
  facet normal 0.19509 0.980785 -0
    outer loop
      vertex 1.85984 4.49005 -3.1
      vertex 0 4.86 3.1
      vertex 1.85984 4.49005 3.1
    endloop
  endfacet
  facet normal 0.19509 0.980785 0
    outer loop
      vertex 0 4.86 3.1
      vertex 1.85984 4.49005 -3.1
      vertex 0 4.86 -3.1
    endloop
  endfacet
  facet normal 0.83147 0.55557 0
    outer loop
      vertex 4.49005 1.85984 3.1
      vertex 3.43654 3.43654 -3.1
      vertex 3.43654 3.43654 3.1
    endloop
  endfacet
  facet normal 0.83147 0.55557 0
    outer loop
      vertex 3.43654 3.43654 -3.1
      vertex 4.49005 1.85984 3.1
      vertex 4.49005 1.85984 -3.1
    endloop
  endfacet
  facet normal 0.19509 -0.980785 0
    outer loop
      vertex 0 -4.86 -3.1
      vertex 1.85984 -4.49005 3.1
      vertex 0 -4.86 3.1
    endloop
  endfacet
  facet normal 0.19509 -0.980785 0
    outer loop
      vertex 1.85984 -4.49005 3.1
      vertex 0 -4.86 -3.1
      vertex 1.85984 -4.49005 -3.1
    endloop
  endfacet
  facet normal 0 0 -1
    outer loop
      vertex 2.60162 -2.8045 -3.1
      vertex 4.86 0 -3.1
      vertex 4.49005 -1.85984 -3.1
    endloop
  endfacet
  facet normal 0 0 -1
    outer loop
      vertex 2.60162 -2.8045 -3.1
      vertex 4.49005 -1.85984 -3.1
      vertex 3.43654 -3.43654 -3.1
    endloop
  endfacet
  facet normal 0 0 -1
    outer loop
      vertex 2.60162 2.8045 -3.1
      vertex 4.86 0 -3.1
      vertex 2.60162 -2.8045 -3.1
    endloop
  endfacet
  facet normal 0 0 -1
    outer loop
      vertex 4.86 0 -3.1
      vertex 2.60162 2.8045 -3.1
      vertex 4.49005 1.85984 -3.1
    endloop
  endfacet
  facet normal 0 0 -1
    outer loop
      vertex 1.85984 -4.49005 -3.1
      vertex 2.60162 -2.8045 -3.1
      vertex 3.43654 -3.43654 -3.1
    endloop
  endfacet
  facet normal 0 0 -1
    outer loop
      vertex -0.562512 -2.8045 -3.1
      vertex 1.85984 -4.49005 -3.1
      vertex 0 -4.86 -3.1
    endloop
  endfacet
  facet normal 0 0 -1
    outer loop
      vertex 1.85984 -4.49005 -3.1
      vertex -0.562512 -2.8045 -3.1
      vertex 2.60162 -2.8045 -3.1
    endloop
  endfacet
  facet normal 0 0 -1
    outer loop
      vertex -1.85984 -4.49005 -3.1
      vertex -0.562512 -2.8045 -3.1
      vertex 0 -4.86 -3.1
    endloop
  endfacet
  facet normal 0 0 -1
    outer loop
      vertex -3.43654 -3.43654 -3.1
      vertex -0.562512 -2.8045 -3.1
      vertex -1.85984 -4.49005 -3.1
    endloop
  endfacet
  facet normal 0 0 -1
    outer loop
      vertex -4.49005 -1.85984 -3.1
      vertex -2.60162 -0.727965 -3.1
      vertex -3.43654 -3.43654 -3.1
    endloop
  endfacet
  facet normal -0 0 -1
    outer loop
      vertex -0.562512 -2.8045 -3.1
      vertex -3.43654 -3.43654 -3.1
      vertex -2.60162 -0.727965 -3.1
    endloop
  endfacet
  facet normal 0 0 -1
    outer loop
      vertex 4.49005 1.85984 -3.1
      vertex 2.60162 2.8045 -3.1
      vertex 3.43654 3.43654 -3.1
    endloop
  endfacet
  facet normal 0 0 -1
    outer loop
      vertex 2.60162 2.8045 -3.1
      vertex 1.85984 4.49005 -3.1
      vertex 3.43654 3.43654 -3.1
    endloop
  endfacet
  facet normal 0 0 -1
    outer loop
      vertex 2.60162 2.8045 -3.1
      vertex 0 4.86 -3.1
      vertex 1.85984 4.49005 -3.1
    endloop
  endfacet
  facet normal 0 0 -1
    outer loop
      vertex -2.60162 2.8045 -3.1
      vertex 0 4.86 -3.1
      vertex 2.60162 2.8045 -3.1
    endloop
  endfacet
  facet normal 0 0 -1
    outer loop
      vertex 0 4.86 -3.1
      vertex -2.60162 2.8045 -3.1
      vertex -1.85984 4.49005 -3.1
    endloop
  endfacet
  facet normal 0 0 -1
    outer loop
      vertex -2.60162 2.8045 -3.1
      vertex -3.43654 3.43654 -3.1
      vertex -1.85984 4.49005 -3.1
    endloop
  endfacet
  facet normal 0 0 -1
    outer loop
      vertex -4.86 0 -3.1
      vertex -2.60162 -0.727965 -3.1
      vertex -4.49005 -1.85984 -3.1
    endloop
  endfacet
  facet normal 0 -0 -1
    outer loop
      vertex -4.49005 1.85984 -3.1
      vertex -2.60162 -0.727965 -3.1
      vertex -4.86 0 -3.1
    endloop
  endfacet
  facet normal -0 0 -1
    outer loop
      vertex -2.60162 2.8045 -3.1
      vertex -4.49005 1.85984 -3.1
      vertex -3.43654 3.43654 -3.1
    endloop
  endfacet
  facet normal 0 0 -1
    outer loop
      vertex -2.60162 -0.727965 -3.1
      vertex -4.49005 1.85984 -3.1
      vertex -2.60162 2.8045 -3.1
    endloop
  endfacet
  facet normal 0.55557 0.83147 -0
    outer loop
      vertex 3.43654 3.43654 -3.1
      vertex 1.85984 4.49005 3.1
      vertex 3.43654 3.43654 3.1
    endloop
  endfacet
  facet normal 0.55557 0.83147 0
    outer loop
      vertex 1.85984 4.49005 3.1
      vertex 3.43654 3.43654 -3.1
      vertex 1.85984 4.49005 -3.1
    endloop
  endfacet
  facet normal -0.55557 0.83147 0
    outer loop
      vertex -1.85984 4.49005 -3.1
      vertex -3.43654 3.43654 3.1
      vertex -1.85984 4.49005 3.1
    endloop
  endfacet
  facet normal -0.55557 0.83147 0
    outer loop
      vertex -3.43654 3.43654 3.1
      vertex -1.85984 4.49005 -3.1
      vertex -3.43654 3.43654 -3.1
    endloop
  endfacet
  facet normal -0.83147 0.55557 0
    outer loop
      vertex -4.49005 1.85984 -3.1
      vertex -3.43654 3.43654 3.1
      vertex -3.43654 3.43654 -3.1
    endloop
  endfacet
  facet normal -0.83147 0.55557 0
    outer loop
      vertex -3.43654 3.43654 3.1
      vertex -4.49005 1.85984 -3.1
      vertex -4.49005 1.85984 3.1
    endloop
  endfacet
  facet normal 0 0 1
    outer loop
      vertex 2.60162 2.8045 3.1
      vertex 4.86 0 3.1
      vertex 4.49005 1.85984 3.1
    endloop
  endfacet
  facet normal -0 0 1
    outer loop
      vertex 2.60162 2.8045 3.1
      vertex 4.49005 1.85984 3.1
      vertex 3.43654 3.43654 3.1
    endloop
  endfacet
  facet normal 0 0 1
    outer loop
      vertex 2.60162 -2.8045 3.1
      vertex 4.86 0 3.1
      vertex 2.60162 2.8045 3.1
    endloop
  endfacet
  facet normal 0 0 1
    outer loop
      vertex 4.86 0 3.1
      vertex 2.60162 -2.8045 3.1
      vertex 4.49005 -1.85984 3.1
    endloop
  endfacet
  facet normal 0 0 1
    outer loop
      vertex 1.85984 4.49005 3.1
      vertex 2.60162 2.8045 3.1
      vertex 3.43654 3.43654 3.1
    endloop
  endfacet
  facet normal 0 0 1
    outer loop
      vertex 0 4.86 3.1
      vertex 2.60162 2.8045 3.1
      vertex 1.85984 4.49005 3.1
    endloop
  endfacet
  facet normal 0 0 1
    outer loop
      vertex -2.60162 2.8045 3.1
      vertex 0 4.86 3.1
      vertex -1.85984 4.49005 3.1
    endloop
  endfacet
  facet normal 0 0 1
    outer loop
      vertex 0 4.86 3.1
      vertex -2.60162 2.8045 3.1
      vertex 2.60162 2.8045 3.1
    endloop
  endfacet
  facet normal 0 0 1
    outer loop
      vertex -4.49005 1.85984 3.1
      vertex -2.60162 2.8045 3.1
      vertex -3.43654 3.43654 3.1
    endloop
  endfacet
  facet normal -0 0 1
    outer loop
      vertex -3.43654 3.43654 3.1
      vertex -2.60162 2.8045 3.1
      vertex -1.85984 4.49005 3.1
    endloop
  endfacet
  facet normal 0 0 1
    outer loop
      vertex 4.49005 -1.85984 3.1
      vertex 2.60162 -2.8045 3.1
      vertex 3.43654 -3.43654 3.1
    endloop
  endfacet
  facet normal 0 0 1
    outer loop
      vertex 2.60162 -2.8045 3.1
      vertex 1.85984 -4.49005 3.1
      vertex 3.43654 -3.43654 3.1
    endloop
  endfacet
  facet normal -0 0 1
    outer loop
      vertex -0.562512 -2.8045 3.1
      vertex 1.85984 -4.49005 3.1
      vertex 2.60162 -2.8045 3.1
    endloop
  endfacet
  facet normal 0 0 1
    outer loop
      vertex 1.85984 -4.49005 3.1
      vertex -0.562512 -2.8045 3.1
      vertex 0 -4.86 3.1
    endloop
  endfacet
  facet normal 0 0 1
    outer loop
      vertex -0.562512 -2.8045 3.1
      vertex -1.85984 -4.49005 3.1
      vertex 0 -4.86 3.1
    endloop
  endfacet
  facet normal 0 0 1
    outer loop
      vertex -3.43654 -3.43654 3.1
      vertex -0.562512 -2.8045 3.1
      vertex -2.60162 -0.727965 3.1
    endloop
  endfacet
  facet normal 0 0 1
    outer loop
      vertex -2.60162 2.8045 3.1
      vertex -4.49005 1.85984 3.1
      vertex -2.60162 -0.727965 3.1
    endloop
  endfacet
  facet normal 0 0 1
    outer loop
      vertex -0.562512 -2.8045 3.1
      vertex -3.43654 -3.43654 3.1
      vertex -1.85984 -4.49005 3.1
    endloop
  endfacet
  facet normal -0 0 1
    outer loop
      vertex -4.86 0 3.1
      vertex -2.60162 -0.727965 3.1
      vertex -4.49005 1.85984 3.1
    endloop
  endfacet
  facet normal 0 0 1
    outer loop
      vertex -2.60162 -0.727965 3.1
      vertex -4.49005 -1.85984 3.1
      vertex -3.43654 -3.43654 3.1
    endloop
  endfacet
  facet normal 0 0 1
    outer loop
      vertex -2.60162 -0.727965 3.1
      vertex -4.86 0 3.1
      vertex -4.49005 -1.85984 3.1
    endloop
  endfacet
  facet normal -0.19509 0.980785 0
    outer loop
      vertex 0 4.86 -3.1
      vertex -1.85984 4.49005 3.1
      vertex 0 4.86 3.1
    endloop
  endfacet
  facet normal -0.19509 0.980785 0
    outer loop
      vertex -1.85984 4.49005 3.1
      vertex 0 4.86 -3.1
      vertex -1.85984 4.49005 -3.1
    endloop
  endfacet
  facet normal -0.55557 -0.83147 0
    outer loop
      vertex -3.43654 -3.43654 -3.1
      vertex -1.85984 -4.49005 3.1
      vertex -3.43654 -3.43654 3.1
    endloop
  endfacet
  facet normal -0.55557 -0.83147 -0
    outer loop
      vertex -1.85984 -4.49005 3.1
      vertex -3.43654 -3.43654 -3.1
      vertex -1.85984 -4.49005 -3.1
    endloop
  endfacet
  facet normal -0.980785 -0.19509 0
    outer loop
      vertex -4.49005 -1.85984 -3.1
      vertex -4.86 0 3.1
      vertex -4.86 0 -3.1
    endloop
  endfacet
  facet normal -0.980785 -0.19509 0
    outer loop
      vertex -4.86 0 3.1
      vertex -4.49005 -1.85984 -3.1
      vertex -4.49005 -1.85984 3.1
    endloop
  endfacet
  facet normal 0.55557 -0.83147 0
    outer loop
      vertex 1.85984 -4.49005 -3.1
      vertex 3.43654 -3.43654 3.1
      vertex 1.85984 -4.49005 3.1
    endloop
  endfacet
  facet normal 0.55557 -0.83147 0
    outer loop
      vertex 3.43654 -3.43654 3.1
      vertex 1.85984 -4.49005 -3.1
      vertex 3.43654 -3.43654 -3.1
    endloop
  endfacet
  facet normal 0.83147 -0.55557 0
    outer loop
      vertex 3.43654 -3.43654 3.1
      vertex 4.49005 -1.85984 -3.1
      vertex 4.49005 -1.85984 3.1
    endloop
  endfacet
  facet normal 0.83147 -0.55557 0
    outer loop
      vertex 4.49005 -1.85984 -3.1
      vertex 3.43654 -3.43654 3.1
      vertex 3.43654 -3.43654 -3.1
    endloop
  endfacet
  facet normal -0.19509 -0.980785 0
    outer loop
      vertex -1.85984 -4.49005 -3.1
      vertex 0 -4.86 3.1
      vertex -1.85984 -4.49005 3.1
    endloop
  endfacet
  facet normal -0.19509 -0.980785 -0
    outer loop
      vertex 0 -4.86 3.1
      vertex -1.85984 -4.49005 -3.1
      vertex 0 -4.86 -3.1
    endloop
  endfacet
  facet normal -0.83147 -0.55557 0
    outer loop
      vertex -3.43654 -3.43654 -3.1
      vertex -4.49005 -1.85984 3.1
      vertex -4.49005 -1.85984 -3.1
    endloop
  endfacet
  facet normal -0.83147 -0.55557 0
    outer loop
      vertex -4.49005 -1.85984 3.1
      vertex -3.43654 -3.43654 -3.1
      vertex -3.43654 -3.43654 3.1
    endloop
  endfacet
  facet normal 0.980785 -0.19509 0
    outer loop
      vertex 4.49005 -1.85984 3.1
      vertex 4.86 0 -3.1
      vertex 4.86 0 3.1
    endloop
  endfacet
  facet normal 0.980785 -0.19509 0
    outer loop
      vertex 4.86 0 -3.1
      vertex 4.49005 -1.85984 3.1
      vertex 4.49005 -1.85984 -3.1
    endloop
  endfacet
  facet normal 0 -1 0
    outer loop
      vertex -2.60162 2.8045 3.2
      vertex 2.60162 2.8045 20.9
      vertex -2.60162 2.8045 20.9
    endloop
  endfacet
  facet normal 0 -1 -0
    outer loop
      vertex 2.60162 2.8045 20.9
      vertex -2.60162 2.8045 3.2
      vertex 2.60162 2.8045 3.2
    endloop
  endfacet
  facet normal 0 -1 0
    outer loop
      vertex -2.60162 2.8045 -3.1
      vertex 2.60162 2.8045 3.1
      vertex -2.60162 2.8045 3.1
    endloop
  endfacet
  facet normal 0 -1 -0
    outer loop
      vertex 2.60162 2.8045 3.1
      vertex -2.60162 2.8045 -3.1
      vertex 2.60162 2.8045 -3.1
    endloop
  endfacet
  facet normal 0 1 -0
    outer loop
      vertex 2.60162 -2.8045 3.2
      vertex -0.562512 -2.8045 20.9
      vertex 2.60162 -2.8045 20.9
    endloop
  endfacet
  facet normal 0 1 0
    outer loop
      vertex -0.562512 -2.8045 20.9
      vertex 2.60162 -2.8045 3.2
      vertex -0.562512 -2.8045 3.2
    endloop
  endfacet
  facet normal 0 1 -0
    outer loop
      vertex 2.60162 -2.8045 -3.1
      vertex -0.562512 -2.8045 3.1
      vertex 2.60162 -2.8045 3.1
    endloop
  endfacet
  facet normal 0 1 0
    outer loop
      vertex -0.562512 -2.8045 3.1
      vertex 2.60162 -2.8045 -3.1
      vertex -0.562512 -2.8045 -3.1
    endloop
  endfacet
  facet normal -1 0 0
    outer loop
      vertex 2.60162 -2.8045 3.2
      vertex 2.60162 2.8045 20.9
      vertex 2.60162 2.8045 3.2
    endloop
  endfacet
  facet normal -1 -0 0
    outer loop
      vertex 2.60162 2.8045 20.9
      vertex 2.60162 -2.8045 3.2
      vertex 2.60162 -2.8045 20.9
    endloop
  endfacet
  facet normal -1 0 0
    outer loop
      vertex 2.60162 -2.8045 -3.1
      vertex 2.60162 2.8045 3.1
      vertex 2.60162 2.8045 -3.1
    endloop
  endfacet
  facet normal -1 -0 0
    outer loop
      vertex 2.60162 2.8045 3.1
      vertex 2.60162 -2.8045 -3.1
      vertex 2.60162 -2.8045 3.1
    endloop
  endfacet
  facet normal 1 -0 0
    outer loop
      vertex -2.60162 -0.727965 20.9
      vertex -2.60162 2.8045 3.2
      vertex -2.60162 2.8045 20.9
    endloop
  endfacet
  facet normal 1 0 0
    outer loop
      vertex -2.60162 2.8045 3.2
      vertex -2.60162 -0.727965 20.9
      vertex -2.60162 -0.727965 3.2
    endloop
  endfacet
  facet normal 1 -0 0
    outer loop
      vertex -2.60162 -0.727965 3.1
      vertex -2.60162 2.8045 -3.1
      vertex -2.60162 2.8045 3.1
    endloop
  endfacet
  facet normal 1 0 0
    outer loop
      vertex -2.60162 2.8045 -3.1
      vertex -2.60162 -0.727965 3.1
      vertex -2.60162 -0.727965 -3.1
    endloop
  endfacet
  facet normal 0 0 -1
    outer loop
      vertex -0.562512 -2.8045 20.9
      vertex 2.60162 2.8045 20.9
      vertex 2.60162 -2.8045 20.9
    endloop
  endfacet
  facet normal 0 0 -1
    outer loop
      vertex -2.60162 -0.727965 20.9
      vertex 2.60162 2.8045 20.9
      vertex -0.562512 -2.8045 20.9
    endloop
  endfacet
  facet normal -0 0 -1
    outer loop
      vertex 2.60162 2.8045 20.9
      vertex -2.60162 -0.727965 20.9
      vertex -2.60162 2.8045 20.9
    endloop
  endfacet
  facet normal 0.713508 0.700647 0
    outer loop
      vertex -0.562512 -2.8045 20.9
      vertex -2.60162 -0.727965 3.2
      vertex -2.60162 -0.727965 20.9
    endloop
  endfacet
  facet normal 0.713508 0.700647 0
    outer loop
      vertex -2.60162 -0.727965 3.2
      vertex -0.562512 -2.8045 20.9
      vertex -0.562512 -2.8045 3.2
    endloop
  endfacet
  facet normal 0.713508 0.700647 0
    outer loop
      vertex -0.562512 -2.8045 3.1
      vertex -2.60162 -0.727965 -3.1
      vertex -2.60162 -0.727965 3.1
    endloop
  endfacet
  facet normal 0.713508 0.700647 0
    outer loop
      vertex -2.60162 -0.727965 -3.1
      vertex -0.562512 -2.8045 3.1
      vertex -0.562512 -2.8045 -3.1
    endloop
  endfacet
endsolid OpenSCAD_Model
